<svg width="16" height="13" viewBox="0 0 16 13" fill="none" xmlns="http://www.w3.org/2000/svg">
<path fill-rule="evenodd" clip-rule="evenodd" d="M0 1.68756C0 1.27335 0.335786 0.937561 0.75 0.937561H12.6228C13.037 0.937561 13.3728 1.27335 13.3728 1.68756C13.3728 2.10177 13.037 2.43756 12.6228 2.43756H0.75C0.335786 2.43756 0 2.10177 0 1.68756ZM0 6.50998C0 6.09577 0.335786 5.75998 0.75 5.75998H14.3189C14.7331 5.75998 15.0689 6.09577 15.0689 6.50998C15.0689 6.9242 14.7331 7.25998 14.3189 7.25998H0.75C0.335786 7.25998 0 6.9242 0 6.50998ZM0.75 10.5824C0.335786 10.5824 0 10.9182 0 11.3324C0 11.7466 0.335786 12.0824 0.75 12.0824H9.23057C9.64478 12.0824 9.98057 11.7466 9.98057 11.3324C9.98057 10.9182 9.64478 10.5824 9.23057 10.5824H0.75Z" fill="white"/>
</svg>
