<svg width="20" height="20" viewBox="0 0 20 20" fill="none" xmlns="http://www.w3.org/2000/svg">
<path fill-rule="evenodd" clip-rule="evenodd" d="M6.53688 18.222H13.1476C15.5758 18.222 17.4387 17.3449 16.9096 13.8149L16.2934 9.03084C15.9673 7.26944 14.8437 6.59532 13.8579 6.59532H5.79752C4.79722 6.59532 3.73893 7.32018 3.36201 9.03084L2.74588 13.8149C2.29647 16.9463 4.10861 18.222 6.53688 18.222Z" stroke="#1E1F21" stroke-width="1.5" stroke-linecap="round" stroke-linejoin="round"/>
<path d="M6.42814 6.42135C6.42814 4.53181 7.95992 3.00003 9.84946 3.00003V3.00003C10.7594 2.99618 11.6333 3.35493 12.2781 3.99697C12.9228 4.63901 13.2853 5.51144 13.2853 6.42135V6.42135" stroke="#1E1F21" stroke-width="1.5" stroke-linecap="round" stroke-linejoin="round"/>
<path d="M7.50092 9.98764H7.53716" stroke="#1E1F21" stroke-width="1.5" stroke-linecap="round" stroke-linejoin="round"/>
<path d="M12.1182 9.98764H12.1545" stroke="#1E1F21" stroke-width="1.5" stroke-linecap="round" stroke-linejoin="round"/>
</svg>
