<svg width="18" height="18" viewBox="0 0 18 18" fill="none" xmlns="http://www.w3.org/2000/svg">
<path fill-rule="evenodd" clip-rule="evenodd" d="M3.54419 4.92578L4.08689 11.5322C4.12649 12.0407 4.53239 12.4221 5.02829 12.4221H5.03189H14.8518H14.8536C15.3225 12.4221 15.723 12.0647 15.7896 11.5903L16.6446 5.54848C16.6644 5.40478 16.6293 5.26108 16.5438 5.14501C16.4592 5.02803 16.335 4.95249 16.1946 4.93223C16.0065 4.9396 8.20081 4.92854 3.54419 4.92578V4.92578ZM5.02647 13.8038C3.84117 13.8038 2.83766 12.8569 2.74136 11.6456L1.91696 1.61061L0.560653 1.37111C0.192551 1.30479 -0.0531497 0.948306 0.00985058 0.571558C0.0746508 0.19481 0.430152 -0.0502143 0.790154 0.00873894L2.66216 0.340351C2.96366 0.394699 3.19316 0.650777 3.21926 0.963966L3.43076 3.54409C16.2792 3.54962 16.3206 3.55607 16.3827 3.56344C16.884 3.63805 17.325 3.9061 17.6256 4.31877C17.9262 4.73053 18.0522 5.23808 17.9802 5.74655L17.1261 11.7874C16.965 12.937 15.9894 13.8038 14.8554 13.8038H14.8509H5.03367H5.02647Z" fill="white"/>
<path fill-rule="evenodd" clip-rule="evenodd" d="M13.4082 8.33045H10.9134C10.5399 8.33045 10.2384 8.02094 10.2384 7.63959C10.2384 7.25824 10.5399 6.94873 10.9134 6.94873H13.4082C13.7808 6.94873 14.0832 7.25824 14.0832 7.63959C14.0832 8.02094 13.7808 8.33045 13.4082 8.33045" fill="white"/>
<path fill-rule="evenodd" clip-rule="evenodd" d="M4.63943 16.3059C4.91033 16.3059 5.12903 16.5297 5.12903 16.807C5.12903 17.0843 4.91033 17.309 4.63943 17.309C4.36763 17.309 4.14893 17.0843 4.14893 16.807C4.14893 16.5297 4.36763 16.3059 4.63943 16.3059" fill="white"/>
<mask id="mask0_2403_48475" style="mask-type:luminance" maskUnits="userSpaceOnUse" x="4" y="16" width="2" height="2">
<path fill-rule="evenodd" clip-rule="evenodd" d="M4.14844 16.807C4.14844 17.0852 4.36714 17.31 4.63984 17.31V17.31C4.91074 17.31 5.12944 17.0852 5.12944 16.807V16.807C5.12944 16.5297 4.91074 16.3059 4.63984 16.3059V16.3059C4.36714 16.3059 4.14844 16.5297 4.14844 16.807V16.807Z" fill="white"/>
</mask>
<g mask="url(#mask0_2403_48475)">
<path fill-rule="evenodd" clip-rule="evenodd" d="M-0.35083 21.9148H9.62931V11.7002H-0.35083V21.9148Z" fill="white"/>
</g>
<path fill-rule="evenodd" clip-rule="evenodd" d="M4.63851 16.6183C4.53681 16.6183 4.45401 16.7031 4.45401 16.8071C4.45401 17.0162 4.82391 17.0162 4.82391 16.8071C4.82391 16.7031 4.74021 16.6183 4.63851 16.6183M4.6386 18.0001C3.996 18.0001 3.474 17.4649 3.474 16.8072C3.474 16.1495 3.996 15.6152 4.6386 15.6152C5.28121 15.6152 5.80411 16.1495 5.80411 16.8072C5.80411 17.4649 5.28121 18.0001 4.6386 18.0001" fill="white"/>
<path fill-rule="evenodd" clip-rule="evenodd" d="M14.7918 16.3062C15.0627 16.3062 15.2823 16.53 15.2823 16.8073C15.2823 17.0845 15.0627 17.3093 14.7918 17.3093C14.52 17.3093 14.3013 17.0845 14.3013 16.8073C14.3013 16.53 14.52 16.3062 14.7918 16.3062" fill="white"/>
<mask id="mask1_2403_48475" style="mask-type:luminance" maskUnits="userSpaceOnUse" x="14" y="16" width="2" height="2">
<path fill-rule="evenodd" clip-rule="evenodd" d="M14.3011 16.807C14.3011 17.0852 14.5198 17.31 14.7916 17.31V17.31C15.0617 17.31 15.2822 17.0852 15.2822 16.807V16.807C15.2822 16.5297 15.0617 16.3059 14.7916 16.3059V16.3059C14.5198 16.3059 14.3011 16.5297 14.3011 16.807V16.807Z" fill="white"/>
</mask>
<g mask="url(#mask1_2403_48475)">
<path fill-rule="evenodd" clip-rule="evenodd" d="M9.80115 21.9148H19.7822V11.7002H9.80115V21.9148Z" fill="white"/>
</g>
<path fill-rule="evenodd" clip-rule="evenodd" d="M14.7907 16.6185C14.6899 16.6185 14.6071 16.7032 14.6071 16.8073C14.608 17.0182 14.977 17.0164 14.9761 16.8073C14.9761 16.7032 14.8924 16.6185 14.7907 16.6185M14.7907 18.0001C14.1481 18.0001 13.6261 17.4649 13.6261 16.8072C13.6261 16.1495 14.1481 15.6152 14.7907 15.6152C15.4342 15.6152 15.9571 16.1495 15.9571 16.8072C15.9571 17.4649 15.4342 18.0001 14.7907 18.0001" fill="white"/>
</svg>
