<svg width="100" height="100" viewBox="0 0 100 100" fill="none" xmlns="http://www.w3.org/2000/svg">
<path d="M69.7884 44.4178V26.1306C69.7884 25.7468 69.6369 25.3786 69.3673 25.1073C69.0978 24.8358 68.7321 24.6834 68.3509 24.6834C64.3877 24.6834 61.1634 21.4373 61.1634 17.4472C61.1634 17.0634 61.0119 16.6953 60.7423 16.4239C60.4728 16.1525 60.1071 16 59.7259 16H26.0611C25.6798 16 25.3141 16.1525 25.0446 16.4239C24.7751 16.6953 24.6236 17.0634 24.6236 17.4472C24.6217 19.3655 23.864 21.2047 22.5168 22.5613C21.1696 23.918 19.3429 24.6811 17.4375 24.6834C17.0562 24.6834 16.6906 24.8358 16.421 25.1073C16.1515 25.3786 16 25.7468 16 26.1306V52.9333C16 67.8643 41.2324 79.4146 42.3062 79.8994C42.491 79.9826 42.6911 80.0256 42.8935 80.0256C43.0959 80.0256 43.296 79.9826 43.4807 79.8994C43.5986 79.8473 46.1746 78.6794 49.695 76.6432C53.3534 81.105 58.8878 83.9545 65.0705 83.9545C76.0602 83.9545 85 74.9528 85 63.8902C85 54.4659 78.5025 46.5597 69.7884 44.4178ZM42.8956 76.9818C39.161 75.1844 18.875 64.8656 18.875 52.9333V27.4737C21.0235 27.1579 23.0134 26.1523 24.5487 24.6066C26.0841 23.0609 27.0828 21.0575 27.3965 18.8945H58.3904C58.7044 21.0577 59.7035 23.0611 61.239 24.6067C62.7747 26.1525 64.7647 27.1579 66.9134 27.4737V43.9185C66.3053 43.862 65.6915 43.8244 65.0705 43.8244C54.0808 43.8244 45.141 52.8262 45.141 63.8888C45.141 67.6863 46.2134 71.2291 48.0419 74.261C46.3597 75.2302 44.6432 76.1378 42.8956 76.9818ZM65.0705 81.0601C55.6664 81.0601 48.016 73.358 48.016 63.8902C48.016 54.4224 55.6664 46.7203 65.0705 46.7203C74.4746 46.7203 82.125 54.4224 82.125 63.8902C82.125 73.358 74.4746 81.0601 65.0705 81.0601Z" fill="white"/>
<path d="M63.5407 58.9113C65.0513 58.9113 66.2805 60.1786 66.2805 61.7374C66.2805 62.1092 66.4239 62.4657 66.6788 62.7287C66.9339 62.9915 67.2797 63.1393 67.6403 63.1393C68.001 63.1393 68.3468 62.9915 68.6019 62.7287C68.8568 62.4657 69 62.1092 69 61.7374C69 59.1202 67.2514 56.9334 64.9004 56.3054V55.3325C64.9004 54.9607 64.7572 54.6041 64.5021 54.3413C64.2472 54.0783 63.9014 53.9307 63.5407 53.9307C63.1801 53.9307 62.8343 54.0783 62.5792 54.3413C62.3243 54.6041 62.1809 54.9607 62.1809 55.3325V56.3054C59.8286 56.9334 58.08 59.1202 58.08 61.7374C58.0815 63.2301 58.6573 64.6611 59.6811 65.7165C60.7048 66.7721 62.093 67.3656 63.5407 67.3672C65.0513 67.3672 66.2805 68.6344 66.2805 70.1932C66.2805 71.7521 65.0513 73.0193 63.5407 73.0193C62.8139 73.0186 62.1172 72.7206 61.6032 72.1907C61.0892 71.6609 60.8003 70.9425 60.7995 70.1932C60.7995 69.8215 60.6563 69.4648 60.4013 69.202C60.1462 68.939 59.8005 68.7914 59.4397 68.7914C59.0791 68.7914 58.7333 68.939 58.4783 69.202C58.2233 69.4648 58.08 69.8215 58.08 70.1932C58.08 72.8104 59.8286 74.9973 62.1809 75.6253V76.5982C62.1809 76.9699 62.3243 77.3264 62.5792 77.5894C62.8343 77.8522 63.1801 78 63.5407 78C63.9014 78 64.2472 77.8522 64.5021 77.5894C64.7572 77.3264 64.9004 76.9699 64.9004 76.5982V75.6253C67.2514 74.9973 69 72.8104 69 70.1932C68.9986 68.7009 68.4231 67.2699 67.3996 66.2146C66.3761 65.1591 64.9884 64.5653 63.5407 64.5635C62.8139 64.5627 62.1172 64.2648 61.6032 63.7349C61.0892 63.2051 60.8003 62.4867 60.7995 61.7374C60.7995 60.1786 62.0287 58.9113 63.5407 58.9113ZM49.3002 42.4105C49.0453 42.1476 48.6995 42 48.3389 42C47.9784 42 47.6326 42.1476 47.3775 42.4105L38.3516 51.7158L34.3377 47.5776C34.2123 47.4437 34.0624 47.3369 33.8963 47.2634C33.7305 47.19 33.5521 47.1513 33.3715 47.1496C33.191 47.1481 33.012 47.1835 32.8449 47.254C32.6777 47.3244 32.5259 47.4286 32.3982 47.5602C32.2706 47.6918 32.1696 47.8483 32.1012 48.0206C32.0328 48.1928 31.9984 48.3775 32.0001 48.5636C32.0016 48.7498 32.0391 48.9337 32.1103 49.1047C32.1816 49.2758 32.2852 49.4304 32.415 49.5598L37.3903 54.689C37.6454 54.9517 37.9912 55.0995 38.3516 55.0995C38.7122 55.0995 39.058 54.9517 39.313 54.689L49.3002 44.3926C49.5552 44.1297 49.6983 43.7732 49.6983 43.4015C49.6983 43.0298 49.5552 42.6733 49.3002 42.4105Z" fill="white"/>
</svg>
