<svg width="100" height="100" viewBox="0 0 100 100" fill="none" xmlns="http://www.w3.org/2000/svg">
<path d="M75.9153 69.1003C76.203 69.1003 76.4788 68.9861 76.6821 68.7827C76.8856 68.5794 76.9999 68.3036 76.9999 68.0159V41.9899C76.9999 40.6956 76.4953 39.3715 75.5794 38.2618L67.537 28.5175C67.1274 28.0195 66.6448 27.5867 66.1052 27.2339C66.1374 26.9025 66.1557 26.5678 66.1557 26.2299V14.0844C66.1557 13.7968 66.0416 13.521 65.8381 13.3176C65.6349 13.1143 65.359 13 65.0713 13C64.7838 13 64.508 13.1143 64.3045 13.3176C64.1013 13.521 63.987 13.7968 63.987 14.0844C63.987 14.0844 63.9847 26.3333 63.9838 26.385C63.6747 26.3301 63.3613 26.3023 63.0471 26.3022H49.022C48.0346 26.3022 47.0668 26.5792 46.2002 27.0883C46.1624 27.1017 46.1253 27.1171 46.0891 27.1346L35.5182 32.2836C34.3438 32.8745 33.4115 33.8554 32.8808 35.0581C32.875 35.0713 32.8696 35.0845 32.8644 35.0978L28.4937 46.1837C28.393 46.4502 28.4013 46.7457 28.5166 47.0063C28.6321 47.2669 28.8453 47.4715 29.1105 47.576C29.3755 47.6806 29.6712 47.6766 29.9333 47.5648C30.1955 47.4532 30.4032 47.2428 30.5114 46.9792L34.8735 35.9148C35.2016 35.1817 35.7752 34.5814 36.4792 34.2279L42.0645 31.5075L36.4896 38.262C35.655 39.2732 35.2138 40.5625 35.2138 41.9902V79.4386C35.2138 79.8748 35.2521 80.3018 35.3217 80.7179L24.1475 75.7666C21.6233 74.6482 20.4793 71.6774 21.5979 69.1441L21.6119 69.1111L28.6798 51.5458C28.7871 51.279 28.7842 50.9804 28.6715 50.7158C28.5587 50.4512 28.3455 50.2423 28.0787 50.135C27.8119 50.0275 27.5132 50.0306 27.2487 50.1432C26.9841 50.2561 26.7752 50.4693 26.6677 50.7361L19.606 68.2849C18.0181 71.9069 19.6584 76.1495 23.2689 77.7491L36.372 83.5553C36.3882 83.5624 36.4045 83.5675 36.4206 83.5738C37.7506 85.6518 40.0498 87.0293 42.6601 87.0293H69.409C73.5237 87.0293 77 83.5532 77 79.4383V73.0765C77 72.7889 76.8857 72.513 76.6823 72.3097C76.479 72.1063 76.2032 71.9922 75.9155 71.9922C75.6279 71.9922 75.3521 72.1063 75.1487 72.3097C74.9454 72.513 74.8311 72.7889 74.8311 73.0765V79.4383C74.8311 82.3774 72.3481 84.8605 69.409 84.8605H42.6601C39.7502 84.8605 37.3825 82.4282 37.3825 79.4383V41.9899C37.3825 41.0591 37.6449 40.2692 38.1624 39.6423L46.2048 29.898C46.9534 28.9911 47.9803 28.4708 49.022 28.4708H63.0471C63.2514 28.4708 63.455 28.4916 63.6562 28.5306C62.9773 30.8455 61.2957 32.7773 59.0249 33.7453C58.4312 32.7521 57.3456 32.0855 56.1067 32.0855C54.2331 32.0855 52.7089 33.6098 52.7089 35.4833C52.7089 37.357 54.2331 38.8813 56.1067 38.8813C57.8393 38.8813 59.2722 37.5773 59.4783 35.8994C62.3987 34.7947 64.6072 32.4542 65.5912 29.5973C65.6868 29.6932 65.7779 29.7936 65.8643 29.898L73.9068 39.6425C74.5027 40.3645 74.8311 41.1983 74.8311 41.9901V68.016C74.8311 68.1585 74.8591 68.2994 74.9136 68.431C74.968 68.5625 75.048 68.6821 75.1487 68.7828C75.2494 68.8835 75.3688 68.9633 75.5005 69.0178C75.6319 69.0723 75.773 69.1003 75.9153 69.1003ZM56.1067 36.7124C55.429 36.7124 54.8778 36.1612 54.8778 35.4833C54.8778 34.8057 55.429 34.2544 56.1067 34.2544C56.7845 34.2544 57.3357 34.8057 57.3357 35.4833C57.3357 36.1612 56.7845 36.7124 56.1067 36.7124Z" fill="white"/>
<path d="M46.709 70.6909C46.8515 70.6912 46.9924 70.6632 47.124 70.6087C47.2557 70.5541 47.3752 70.4741 47.4757 70.3733L65.9831 51.866C66.1865 51.6625 66.3006 51.3868 66.3006 51.0992C66.3006 50.8116 66.1865 50.5358 65.9831 50.3324C65.7798 50.1291 65.5039 50.0149 65.2164 50.0149C64.9287 50.0149 64.6529 50.1291 64.4496 50.3324L45.9422 68.8399C45.2508 69.4842 45.7813 70.7238 46.709 70.6909ZM49.0225 59.2685C51.6135 59.2685 53.7216 57.1604 53.7216 54.5694C53.7216 51.9783 51.6135 49.8701 49.0225 49.8701H48.8778C46.2868 49.8701 44.1787 51.9783 44.1787 54.5694C44.1787 57.1604 46.2868 59.2685 48.8778 59.2685H49.0225ZM46.3475 54.5694C46.3475 53.1742 47.4826 52.039 48.8778 52.039H49.0225C50.4175 52.039 51.5526 53.1742 51.5526 54.5694C51.5526 55.9645 50.4175 57.0997 49.0225 57.0997H48.8778C47.4826 57.0997 46.3475 55.9645 46.3475 54.5694ZM63.0475 70.6909H63.1921C65.7832 70.6909 67.8912 68.5828 67.8912 65.9918C67.8912 63.4008 65.7832 61.2927 63.1921 61.2927H63.0475C60.4565 61.2927 58.3484 63.4008 58.3484 65.9918C58.3484 68.5828 60.4565 70.6909 63.0475 70.6909ZM63.0475 63.4615H63.1921C64.5872 63.4615 65.7223 64.5966 65.7223 65.9918C65.7223 67.387 64.5872 68.5221 63.1921 68.5221H63.0475C61.6523 68.5221 60.5172 67.387 60.5172 65.9918C60.5172 64.5966 61.6523 63.4615 63.0475 63.4615Z" fill="white"/>
</svg>
