<svg width="100" height="100" viewBox="0 0 100 100" fill="none" xmlns="http://www.w3.org/2000/svg">
<path d="M79.0086 45.5095C78.7723 38.2994 75.7933 31.4513 70.6796 26.3631C65.287 20.9694 58.12 18 50.5 18C35.1097 18 22.5345 30.2498 21.9924 45.5095C20.8057 46.0351 19.7969 46.8936 19.0883 47.9811C18.3797 49.0684 18.0017 50.338 18 51.6359V59.1627C18.0019 60.94 18.7088 62.6439 19.9656 63.9008C21.2224 65.1576 22.9264 65.8645 24.7038 65.8664C25.8537 65.8651 26.9562 65.4076 27.7693 64.5944C28.5825 63.7813 29.0399 62.6788 29.0413 61.5289V49.2687C29.0413 47.0227 27.3187 45.1912 25.1287 44.9737C25.9371 31.6791 37.0044 21.1094 50.5 21.1094C57.2909 21.1094 63.6763 23.7564 68.4824 28.5625C72.8957 32.9757 75.4784 38.7279 75.8671 44.9746C73.6792 45.1944 71.9597 47.0248 71.9597 49.2687V61.5278C71.9597 63.7924 73.7092 65.6353 75.9252 65.827V68.925C75.9232 70.6024 75.2559 72.2106 74.0696 73.3968C72.8834 74.5828 71.2751 75.2498 69.5976 75.2514H64.9118C64.596 74.3305 63.9995 73.5314 63.2063 72.9667C62.4131 72.402 61.4629 72.0998 60.4893 72.1027H55.6595C54.966 72.1027 54.3007 72.2499 53.6912 72.5339C52.8752 72.9109 52.184 73.5134 51.6991 74.2704C51.2144 75.0274 50.9561 75.9072 50.955 76.8061C50.955 78.0643 51.4452 79.246 52.3334 80.1301C52.7688 80.5689 53.287 80.9169 53.858 81.1539C54.4289 81.3909 55.0412 81.5122 55.6595 81.5106H60.4893C62.4917 81.5106 64.2567 80.216 64.9149 78.3608H69.5976C74.8017 78.3608 79.0345 74.1279 79.0345 68.925V65.2735C80.2142 64.745 81.2159 63.8868 81.9194 62.8023C82.623 61.7178 82.9981 60.4532 83 59.1605V51.6339C83 48.9039 81.3561 46.5532 79.0086 45.5095ZM25.9309 49.2687V61.5278C25.9309 62.2046 25.3806 62.756 24.7027 62.756C23.7498 62.7549 22.8361 62.3758 22.1623 61.702C21.4885 61.0282 21.1094 60.1145 21.1083 59.1616V51.635C21.1094 50.6819 21.4885 49.7683 22.1623 49.0945C22.8361 48.4206 23.7498 48.0416 24.7027 48.0405C25.3806 48.0405 25.9309 48.5919 25.9309 49.2687ZM62.0492 77.1399C61.972 77.4968 61.7751 77.8167 61.4912 78.0464C61.2073 78.2762 60.8535 78.4021 60.4882 78.4033H55.6584C55.2335 78.4033 54.8344 78.2375 54.5297 77.9327C54.3814 77.7855 54.2638 77.6102 54.1837 77.4172C54.1037 77.2242 54.0627 77.0172 54.0632 76.8083C54.0644 76.3856 54.2328 75.9806 54.5318 75.6819C54.8307 75.3832 55.2357 75.2149 55.6584 75.2142H60.4882C60.9132 75.2142 61.3122 75.3789 61.6159 75.6837C61.9165 75.9832 62.0823 76.3832 62.0823 76.8083C62.0834 76.9222 62.0709 77.0362 62.0492 77.1399ZM79.8906 59.1616C79.8895 60.1145 79.5105 61.0282 78.8366 61.702C78.1627 62.3758 77.2492 62.7549 76.2961 62.756C75.9706 62.7558 75.6583 62.6263 75.428 62.396C75.1978 62.1657 75.0683 61.8535 75.0681 61.5278V49.2687C75.0681 48.5919 75.6183 48.0405 76.2961 48.0405C77.2492 48.0416 78.1627 48.4206 78.8366 49.0945C79.5105 49.7683 79.8895 50.6819 79.8906 51.635V59.1616Z" fill="white"/>
<path d="M60.5665 59.6977C62.3131 59.6957 63.9876 59.001 65.2225 57.766C66.4577 56.5309 67.1523 54.8564 67.1542 53.1099V39.6869C67.1542 37.9311 66.468 36.2769 65.2223 35.0311C63.9764 33.7853 62.3233 33.0991 60.5665 33.0991H40.4324C38.6858 33.1011 37.0113 33.7957 35.7763 35.0307C34.5414 36.2659 33.8467 37.9402 33.8447 39.6869V53.1099C33.8467 54.8564 34.5414 56.5309 35.7763 57.766C37.0113 59.001 38.6858 59.6957 40.4324 59.6977H40.5558V63.1759C40.5538 63.6007 40.6356 64.0216 40.7968 64.4146C40.9581 64.8075 41.1953 65.1647 41.4952 65.4656C41.7948 65.7666 42.1512 66.0052 42.5435 66.1679C42.9358 66.3307 43.3565 66.4143 43.7813 66.4139C44.2056 66.4147 44.6259 66.33 45.0169 66.165C45.408 65.9999 45.7618 65.7577 46.0573 65.453L51.8437 59.6977H60.5665ZM50.1077 57.0401L43.8455 63.2682C43.8175 63.2971 43.7968 63.3189 43.7376 63.293C43.6661 63.264 43.6661 63.2174 43.6661 63.1759V58.1429C43.6661 57.7306 43.5024 57.3351 43.2108 57.0435C42.9192 56.7521 42.5238 56.5882 42.1115 56.5882H40.4334C39.5113 56.5872 38.6272 56.2204 37.9751 55.5683C37.3231 54.9161 36.9563 54.032 36.9551 53.1099V39.6869C36.9563 38.7647 37.3231 37.8805 37.9751 37.2285C38.6272 36.5764 39.5113 36.2096 40.4334 36.2085H60.5676C61.4941 36.2085 62.3659 36.5712 63.0249 37.2294C63.6842 37.8886 64.0459 38.7613 64.0459 39.6869V53.1099C64.0447 54.032 63.6779 54.9161 63.0259 55.5683C62.3738 56.2204 61.4897 56.5872 60.5676 56.5882H51.2043C50.7928 56.5882 50.3989 56.751 50.1077 57.0401Z" fill="white"/>
<path d="M42.948 44.353C41.6835 44.353 40.6543 45.3833 40.6543 46.6468C40.6543 47.9102 41.6846 48.9405 42.948 48.9405C44.2135 48.9405 45.2437 47.9102 45.2437 46.6468C45.2437 45.3833 44.2145 44.353 42.948 44.353ZM50.4995 44.353C49.2351 44.353 48.2059 45.3833 48.2059 46.6468C48.2059 47.9102 49.2362 48.9405 50.4995 48.9405C51.7661 48.9405 52.7953 47.9102 52.7953 46.6468C52.7953 45.3833 51.7661 44.353 50.4995 44.353ZM58.0511 44.353C56.7867 44.353 55.7575 45.3833 55.7575 46.6468C55.7575 47.9102 56.7878 48.9405 58.0511 48.9405C59.3166 48.9405 60.3469 47.9102 60.3469 46.6468C60.3469 45.3833 59.3166 44.353 58.0511 44.353Z" fill="white"/>
</svg>
