<svg width="100" height="100" viewBox="0 0 100 100" fill="none" xmlns="http://www.w3.org/2000/svg">
<path d="M85.902 56.5267L79.9789 41.8872C79.7022 41.1986 79.2266 40.6089 78.6135 40.1943C78.0003 39.7796 77.2775 39.5589 76.5383 39.5604H68.1589V33.9868C68.1579 33.0274 67.778 32.1077 67.1028 31.4292C66.4276 30.7507 65.5122 30.3689 64.5572 30.3678H22.6915C21.7366 30.3689 20.8211 30.7507 20.1459 31.4292C19.4707 32.1077 19.0908 33.0274 19.0899 33.9868V44.1331H16.3289C15.9764 44.1331 15.6384 44.2737 15.3892 44.5241C15.14 44.7744 15 45.1141 15 45.4681C15 45.8222 15.14 46.1617 15.3892 46.4122C15.6384 46.6625 15.9764 46.8031 16.3289 46.8031H19.0899V66.5693C19.0912 67.5287 19.471 68.4484 20.1464 69.1267C20.8218 69.805 21.7374 70.1865 22.6923 70.1875H26.622C26.9305 71.8221 27.7973 73.2971 29.0727 74.3582C30.3481 75.4193 31.952 76 33.6081 76C35.2641 76 36.8681 75.4193 38.1434 74.3582C39.4188 73.2971 40.2856 71.8221 40.5942 70.1875H68.7625C69.0711 71.8221 69.9379 73.2971 71.2131 74.3582C72.4885 75.4193 74.0926 76 75.7485 76C77.4046 76 79.0086 75.4193 80.284 74.3582C81.5594 73.2971 82.4262 71.8221 82.7346 70.1875H84.6711C85.0235 70.1875 85.3616 70.0469 85.6107 69.7966C85.8599 69.5461 86 69.2066 86 68.8525V57.0302C85.9998 56.8577 85.9666 56.6867 85.902 56.5267ZM82.6967 55.6944L73.9868 55.6572L74.0325 47.563H79.4027L82.6967 55.6944ZM30.6587 44.1353H21.7476V33.9892C21.7476 33.7376 21.847 33.4963 22.0241 33.3184C22.201 33.1403 22.4411 33.0404 22.6915 33.0401H64.5572C64.8075 33.0406 65.0476 33.1407 65.2245 33.3185C65.4014 33.4964 65.5008 33.7376 65.5011 33.9892V57.9022H21.7476V46.8055H30.6587C31.0112 46.8055 31.3491 46.6648 31.5984 46.4144C31.8476 46.1641 31.9875 45.8245 31.9875 45.4704C31.9875 45.1164 31.8476 44.7767 31.5984 44.5264C31.3491 44.2761 31.0112 44.1353 30.6587 44.1353ZM21.7506 66.5716V60.5723H65.4973V67.5198H40.5979C40.2877 65.8866 39.4204 64.4133 38.1452 63.3536C36.8699 62.2938 35.2668 61.7139 33.6119 61.7139C31.9569 61.7139 30.3538 62.2938 29.0785 63.3536C27.8033 64.4133 26.936 65.8866 26.6258 67.5198H22.6954C22.445 67.5196 22.2049 67.4197 22.0278 67.242C21.8508 67.0641 21.7511 66.823 21.7506 66.5716ZM33.6119 73.3329C32.7314 73.3321 31.8707 73.0693 31.139 72.5773C30.4072 72.0853 29.8369 71.3865 29.5004 70.5691C29.1638 69.7517 29.0758 68.8523 29.2478 67.9849C29.4197 67.1173 29.8438 66.3203 30.4665 65.6949C31.0891 65.0693 31.8822 64.6434 32.7458 64.4705C33.6094 64.2977 34.5046 64.3861 35.3182 64.7243C36.1319 65.0624 36.8275 65.6353 37.3172 66.3704C37.8067 67.1057 38.0685 67.9702 38.0693 68.8548C38.068 70.0422 37.5981 71.1804 36.7624 72.02C35.9268 72.8595 34.7936 73.3318 33.6119 73.3329ZM75.7485 73.3329C74.8681 73.3321 74.0076 73.0693 73.2757 72.5773C72.5439 72.0853 71.9737 71.3865 71.6371 70.5691C71.3005 69.7517 71.2125 68.8523 71.3845 67.9849C71.5566 67.1173 71.9805 66.3203 72.6032 65.6949C73.2258 65.0693 74.0191 64.6434 74.8827 64.4705C75.7461 64.2977 76.6413 64.3861 77.455 64.7243C78.2686 65.0624 78.9642 65.6353 79.4539 66.3704C79.9436 67.1057 80.2052 67.9702 80.206 68.8548C80.2046 70.042 79.7346 71.1803 78.8989 72.0197C78.0633 72.8593 76.9303 73.3314 75.7485 73.3329ZM82.7346 67.5198C82.4244 65.8866 81.5571 64.4133 80.2819 63.3536C79.0068 62.2938 77.4035 61.7139 75.7485 61.7139C74.0936 61.7139 72.4905 62.2938 71.2152 63.3536C69.9402 64.4133 69.0727 65.8866 68.7625 67.5198H68.155V42.2306H76.5383C76.7485 42.2301 76.9541 42.2931 77.1284 42.411C77.3027 42.529 77.4378 42.6968 77.5164 42.8926L78.3259 44.8929H74.0325C73.3157 44.8937 72.6287 45.1802 72.1218 45.6892C71.615 46.1985 71.3299 46.8887 71.3291 47.6087V55.6572C71.3299 56.3771 71.615 57.0675 72.1218 57.5766C72.6287 58.0857 73.3157 58.3721 74.0325 58.3729H83.3421V67.5198H82.7346ZM16.3289 26.6702H29.9099C30.2624 26.6702 30.6005 26.5294 30.8497 26.2791C31.0988 26.0288 31.2389 25.6891 31.2389 25.3352C31.2389 24.981 31.0988 24.6414 30.8497 24.3911C30.6005 24.1408 30.2624 24 29.9099 24H16.3289C15.9764 24 15.6384 24.1408 15.3892 24.3911C15.14 24.6414 15 24.981 15 25.3352C15 25.6891 15.14 26.0288 15.3892 26.2791C15.6384 26.5294 15.9764 26.6702 16.3289 26.6702Z" fill="white"/>
<path d="M41.5831 37.7392C41.5832 37.5736 41.547 37.4096 41.4765 37.2565C41.406 37.1036 41.3027 36.9645 41.1723 36.8474C41.0419 36.7304 40.8871 36.6374 40.7169 36.5741C40.5464 36.5107 40.3639 36.4783 40.1796 36.4783H25.4034C25.0311 36.4783 24.6743 36.6111 24.4109 36.8477C24.1478 37.0841 24 37.4048 24 37.7392C24 38.0736 24.1478 38.3942 24.4109 38.6308C24.6743 38.8672 25.0311 39 25.4034 39H40.1796C40.5518 39 40.9088 38.8672 41.1719 38.6308C41.4352 38.3942 41.5831 38.0736 41.5831 37.7392ZM37.5997 26.5219H40.5966C40.9689 26.5219 41.3257 26.3889 41.5891 26.1525C41.8522 25.9161 42 25.5953 42 25.261C42 24.9265 41.8522 24.6058 41.5891 24.3694C41.3257 24.133 40.9689 24 40.5966 24H37.5997C37.2275 24 36.8705 24.133 36.6074 24.3694C36.3441 24.6058 36.1962 24.9265 36.1962 25.261C36.1962 25.5953 36.3441 25.9161 36.6074 26.1525C36.8705 26.3889 37.2275 26.5219 37.5997 26.5219Z" fill="white"/>
</svg>
