<svg width="126" height="126" viewBox="0 0 126 126" fill="none" xmlns="http://www.w3.org/2000/svg">
<path d="M93 3H33C16.4315 3 3 16.4315 3 33V93C3 109.569 16.4315 123 33 123H93C109.569 123 123 109.569 123 93V33C123 16.4315 109.569 3 93 3Z" stroke="white" stroke-width="5" stroke-linecap="round" stroke-linejoin="round"/>
<path d="M87.0002 59.2218C87.7407 64.2153 86.8877 69.3151 84.5627 73.7959C82.2378 78.2767 78.5591 81.9103 74.05 84.1798C69.5408 86.4494 64.4309 87.2394 59.4469 86.4374C54.4629 85.6354 49.8588 83.2823 46.2892 79.7128C42.7197 76.1432 40.3666 71.5391 39.5646 66.5551C38.7626 61.5711 39.5526 56.4612 41.8222 51.9521C44.0917 47.4429 47.7253 43.7643 52.2061 41.4393C56.6869 39.1143 61.7867 38.2613 66.7802 39.0018C71.8737 39.7571 76.5893 42.1306 80.2304 45.7716C83.8714 49.4127 86.2449 54.1283 87.0002 59.2218Z" stroke="white" stroke-width="5" stroke-linecap="round" stroke-linejoin="round"/>
<path d="M96 30H96.06" stroke="white" stroke-width="5" stroke-linecap="round" stroke-linejoin="round"/>
</svg>
