<svg width="16" height="16" viewBox="0 0 16 16" fill="none" xmlns="http://www.w3.org/2000/svg">
<path fill-rule="evenodd" clip-rule="evenodd" d="M1.4254 7.4852C2.5211 11.0641 6.84997 13.9579 8.00038 14.6741C9.15469 13.9505 13.5148 11.0247 14.5754 7.48848C15.2717 5.20266 14.6254 2.30724 12.0573 1.43836C10.8131 1.01911 9.3618 1.27427 8.35988 2.08817C8.15043 2.25719 7.8597 2.26047 7.64869 2.09309C6.58738 1.2554 5.20095 1.01008 3.93722 1.43836C1.37304 2.30642 0.729061 5.20184 1.4254 7.4852M8.00123 16C7.90432 16 7.80819 15.9754 7.72066 15.9253C7.47604 15.785 1.71385 12.4507 0.30945 7.86098C0.308669 7.86098 0.308669 7.86016 0.308669 7.86016C-0.572892 4.97048 0.408704 1.3391 3.57779 0.266748C5.06582 -0.238659 6.68748 -0.0163125 7.99888 0.852561C9.26964 0.009122 10.9577 -0.22389 12.4161 0.266748C15.5883 1.34074 16.573 4.9713 15.6922 7.86016C14.3331 12.3973 8.52876 15.7818 8.28258 15.9237C8.19505 15.9746 8.09814 16 8.00123 16" fill="white"/>
</svg>
